# xmcd
#
# Track frame offsets:
#	150
#	17466
#	33535
#	50036
#	67543
#	84263
#	101203
#	114758
#	131381
#	146914
#	167302
#	181087
#	196530
#	210513
#	222385
#
# Disc length: 3225 seconds
#
# Revision: 1
# Processed by: cddbd v1.5.2PL0 Copyright (c) Steve Scherf et al.
# Submitted via: audiograbber 1.83.01
#
DISCID=bc0c970f
DTITLE=Guy Clark - Best Of The Sugar Hill Years
DYEAR=2007
DGENRE=Country
TTITLE0=Magnolia Wind
TTITLE1=Cold Dog Soup
TTITLE2=Soldier's Joy, 1864
TTITLE3=South Coast Of Texas (Live)
TTITLE4=Sis Draper
TTITLE5=Mud
TTITLE6=Ain't No Trouble To Me
TTITLE7=A Little Of Both (Live)
TTITLE8=Dancin' Days
TTITLE9=Fort Worth Blues
TTITLE10=Red River
TTITLE11=Arizona Star
TTITLE12=Bunkhouse Blues
TTITLE13=Queenie's Song
TTITLE14=Out In The Parking Lot (Live)
EXTD=
EXTT0=
EXTT1=
EXTT2=
EXTT3=
EXTT4=
EXTT5=
EXTT6=
EXTT7=
EXTT8=
EXTT9=
EXTT10=
EXTT11=
EXTT12=
EXTT13=
EXTT14=
PLAYORDER=
